<svg t="1575991489453" class="icon" viewBox="0 0 1024 1024" version="1.1" xmlns="http://www.w3.org/2000/svg" p-id="15697" width="200" height="200"><path d="M887.98208 557.6704a499.41504 499.41504 0 0 1 34.2016 285.78816L890.88 1024l-1.792-3.7888A229.15072 229.15072 0 0 0 682.82368 890.88H256a81.92 81.92 0 0 1-81.92-81.92v-5.08928a497.22368 497.22368 0 0 1 169.0112-29.5936h222.45376c144.20992 0 267.95008-87.67488 320.79872-212.6336z" fill="#CF5A1A" p-id="15698"></path><path d="M296.96 102.4h250.88C714.67008 102.4 849.92 237.64992 849.92 404.48S714.67008 706.56 547.84 706.56H321.3824A454.5024 454.5024 0 0 0 0 839.68V399.36c0-164.00384 132.95616-296.96 296.96-296.96z" fill="#FF7A45" p-id="15699"></path><path d="M593.92 419.84a61.42976 61.42976 0 1 0 122.85952 0.01024A61.42976 61.42976 0 0 0 593.92 419.84zM368.64 419.84a61.42976 61.42976 0 1 0 122.85952 0.01024A61.42976 61.42976 0 0 0 368.64 419.84zM143.36 419.84a61.42976 61.42976 0 1 0 122.85952 0.01024A61.42976 61.42976 0 0 0 143.36 419.84z" fill="#FFD8BF" p-id="15700"></path></svg>