<svg t="1575967434195" class="icon" viewBox="0 0 1372 1024" version="1.1" xmlns="http://www.w3.org/2000/svg" p-id="4611" width="200" height="200"><path d="M103.399869 676.329643v338.659295h1259.588415V394.809489L1083.006492 514.362154l-283.60793 108.454485-274.597526-80.873861-237.457085 70.43498-183.944082 63.951885z" fill="#93D8CA" p-id="4612"></path><path d="M1360.680742 159.879712H9.779584a8.241222 8.241222 0 0 1-9.010403-7.142392 8.241222 8.241222 0 0 1 9.010403-7.142393h1350.901158a8.241222 8.241222 0 0 1 9.010403 7.142393 8.241222 8.241222 0 0 1-9.010403 7.142392zM817.749017 1023.999341a9.010403 9.010403 0 0 1-9.010403-9.010403V616.663193a9.010403 9.010403 0 0 1 18.130689 0v398.325745a9.010403 9.010403 0 0 1-9.120286 9.010403z" fill="#69494D" p-id="4613"></path><path d="M1334.968129 1023.999341H37.030559C16.592328 1023.999341 0 1010.923268 0 994.550706V29.448634C0 13.185956 16.592328 0 37.030559 0h1297.93757c20.438231 0 37.030559 13.185956 37.030558 29.448634v965.102072c0.109883 16.372562-16.592328 29.448634-37.030558 29.448635zM37.030559 14.394668a17.361508 17.361508 0 0 0-18.89987 15.053966v965.102072a17.361508 17.361508 0 0 0 19.009753 15.053966h1297.827687a17.361508 17.361508 0 0 0 19.009752-15.053966V29.448634a17.361508 17.361508 0 0 0-19.009752-15.053966z" fill="#69494D" p-id="4614"></path><path d="M287.343951 1023.999341a9.010403 9.010403 0 0 1-9.010403-9.010403v-453.816641a9.010403 9.010403 0 1 1 18.130689 0v453.816641a9.010403 9.010403 0 0 1-9.120286 9.010403zM552.491543 1023.999341a9.010403 9.010403 0 0 1-9.010403-9.010403V462.387512a9.010403 9.010403 0 1 1 18.130689 0v552.601426a9.010403 9.010403 0 0 1-9.120286 9.010403zM1083.006492 1023.999341a9.010403 9.010403 0 0 1-9.010403-9.010403V438.762675a9.010403 9.010403 0 0 1 18.130689 0v576.226263a9.010403 9.010403 0 0 1-9.120286 9.010403zM516.120281 437.334196l-187.680102 74.720416-4.944733-17.471391 185.921975-73.951235M780.498693 547.876458l-192.844602-105.267879 1.318596-19.888817 201.195706 109.773081-9.6697 15.383615zM1063.227559 419.31339L852.911566 546.887511l-12.856307-13.295838 207.788685-126.03576 15.383615 11.757477zM1111.46618 362.613781l246.137839-183.284784a9.010403 9.010403 0 0 1 10.988297 14.504551l-250.533158 186.801039zM257.345901 543.261374L13.73537 662.044858a9.010403 9.010403 0 0 1-7.911573-16.262679L249.214562 527.438227" fill="#69494D" p-id="4615"></path><path d="M287.343951 561.172297a49.447334 49.447334 0 1 1 49.447333-49.447334 49.447334 49.447334 0 0 1-49.447333 49.447334z m0-80.763979A31.316645 31.316645 0 1 0 318.660595 511.724963a31.316645 31.316645 0 0 0-31.316644-31.316645zM552.491543 464.255523a49.447334 49.447334 0 1 1 49.447333-49.447334 49.447334 49.447334 0 0 1-49.447333 49.447334z m0-80.763979a31.316645 31.316645 0 1 0 31.316644 31.316645 31.316645 31.316645 0 0 0-31.316644-31.316645zM817.749017 616.663193a49.447334 49.447334 0 1 1 49.447334-49.447333 49.447334 49.447334 0 0 1-49.447334 49.447333z m0-80.763978a31.316645 31.316645 0 1 0 31.316645 31.316645 31.316645 31.316645 0 0 0-31.316645-31.316645zM1083.006492 441.729515a49.447334 49.447334 0 1 1 49.447334-49.447334 49.447334 49.447334 0 0 1-49.447334 49.447334z m0-80.763979a31.316645 31.316645 0 1 0 31.316645 31.316645 31.316645 31.316645 0 0 0-31.316645-31.316645z" fill="#69494D" p-id="4616"></path></svg>